<svg xmlns="http://www.w3.org/2000/svg" version="1.1" xmlns:xlink="http://www.w3.org/1999/xlink" xmlns:svgjs="http://svgjs.dev/svgjs" viewBox="0 0 1422 800"><defs><linearGradient x1="50%" y1="0%" x2="50%" y2="100%" id="ccchaos-grad"><stop stop-color="hsl(206, 75%, 49%)" stop-opacity="1" offset="0%"></stop><stop stop-color="hsl(331, 90%, 56%)" stop-opacity="1" offset="100%"></stop></linearGradient></defs><g stroke-width="2" stroke="url(#ccchaos-grad)" fill="none" stroke-linecap="round"><path d="M726.97 102.85C737.22 104.91 747.63 107.81 758.17 111.42 768.71 115.21 779.35 119.5 790.03 124.16 800.65 128.68 811.21 133.39 821.58 138.19 831.75 142.62 841.55 147.04 850.8 151.42 859.61 155.33 867.64 159.19 874.69 163 883.65 168.09 894.34 178.13 896.15 183.39 896.64 188.7 896.91 201.1 899.23 208.4 902.98 213.5 908.5 219.09 916.04 225.15 925.83 231.35 937.51 238.01 950.71 245.11 964.95 252.34 979.37 259.99 993.03 267.98 1005.19 276.09 1014.79 284.52 1020.98 293.2 1023.69 301.97 1022.35 310.95 1017.09 320.11 1009.14 329.3 998.81 338.63 987.34 348.05 976.73 357.48 967.66 366.98 961.35 376.51 959.12 386.03 960.72 395.35 965.75 404.45 974.01 413.56 983.82 422.47 993.9 431.18 1003.64 439.92 1011.22 448.5 1015.77 456.94 1017.28 465.48 1014.93 473.93 1008.92 482.34 999.98 490.92 988.39 499.54 975.02 508.23 960.8 517.17 946.4 526.27 932.58 535.55 919.96 545.14 908.85 554.96 899.46 564.99 892.02 575.33 886.23 585.86 881.84 596.52 878.94 607.34 876.8 618.15 875.01 628.82 873.81 639.38 872.32 649.54 870.27 659.13 868.09 668.21 865 676.42 860.92 683.53 856.42 689.75 850.9 694.63 844.43 698.02 837.55 700.32 829.85 701.05 821.47 700.22 812.82 698.42 803.65 695.25 794.08 690.86 784.4 686.04 774.44 680.48 764.29 674.45 754.11 668.8 743.8 663.26 733.4 658.11 723 654.14 712.75 651.05 702.66 648.93 692.55 648.23 682.55 648.45 672.64 649.47 662.66 651.63 652.72 654.23 642.79 657.04 632.73 660.38 622.63 663.47 612.49 666.07 602.22 668.54 591.91 670.15 581.59 670.75 571.22 670.75 560.93 669.55 550.8 667.13 540.83 663.92 531.19 659.5 522.01 653.95 513.25 647.68 505.14 640.41 497.82 632.28 491.09 623.64 485.25 614.34 480.32 604.52 475.94 594.41 472.37 583.96 469.53 573.3 466.86 562.53 464.62 551.66 462.64 540.77 460.3 529.9 457.89 519.07 455.29 508.34 451.98 497.66 448.37 487.09 444.51 476.64 440.06 466.25 435.6 455.98 431.35 445.83 427.1 435.72 423.5 425.72 420.8 415.82 418.73 405.95 417.87 396.16 418.29 386.49 419.47 376.82 421.76 367.47 424.91 358.47 428.27 349.45 432.02 340.77 435.94 332.43 439.37 324.08 442.62 316.08 445.6 308.44 447.83 300.79 449.83 293.48 451.68 286.54 453.07 279.56 454.65 272.92 456.58 266.61 458.62 260.22 461.37 254.12 464.95 248.3 469.08 242.33 474.19 236.56 480.25 230.98 486.96 225.16 494.52 219.46 502.82 213.83 511.54 207.88 520.77 201.95 530.34 196.02 540.02 189.73 549.84 183.41 559.7 177.08 569.4 170.42 579.04 163.79 588.59 157.23 597.87 150.46 607.06 143.88 616.18 137.57 625.05 131.28 633.93 125.42 642.86 120.11 651.6 115.07 660.49 110.76 669.57 107.27 678.55 104.26 687.79 102.21 697.34 101.17 706.85 100.71 716.72 101.27 726.97 102.85" stroke-dasharray="4 8" transform="rotate(0, 711, 400)" opacity="0.70"></path><path d="M731.7 113.53C741.66 115.56 751.66 118.39 761.64 121.92 771.61 125.62 781.54 129.82 791.34 134.4 801.05 138.86 810.53 143.53 819.66 148.31 828.55 152.76 836.93 157.23 844.64 161.67 851.93 165.68 858.38 169.64 863.85 173.56 870.7 178.82 878.44 189.06 879.82 194.31 880.83 199.51 884.55 211.33 889.44 218.16 894.93 222.88 902.12 228.05 911.09 233.64 921.91 239.33 934.17 245.46 947.43 252 961.2 258.65 974.68 265.69 987.01 273.09 997.62 280.57 1005.58 288.39 1010.24 296.48 1011.7 304.64 1009.48 313.04 1003.79 321.64 995.85 330.28 985.93 339.09 975.12 348.02 965.23 356.97 956.81 366.03 950.9 375.17 948.72 384.31 949.99 393.31 954.41 402.16 961.84 411.02 970.83 419.74 980.26 428.33 989.64 436.96 997.3 445.5 1002.42 453.96 1004.97 462.51 1004.06 471.04 999.74 479.57 992.63 488.26 982.8 497.03 970.95 505.89 957.91 514.97 944.21 524.21 930.59 533.61 917.63 543.26 905.71 553.1 895.13 563.1 886.16 573.31 878.69 583.64 872.59 593.99 867.99 604.42 864.34 614.74 861.31 624.81 859.11 634.69 856.98 644.1 854.64 652.87 852.46 661.1 849.69 668.43 846.2 674.68 842.5 680.08 837.95 684.2 832.55 686.93 826.85 688.66 820.35 688.96 813.12 687.83 805.67 685.86 797.61 682.68 789.03 678.4 780.33 673.79 771.23 668.52 761.79 662.83 752.31 657.52 742.56 652.31 732.58 647.43 722.6 643.63 712.63 640.62 702.7 638.46 692.76 637.6 682.82 637.56 672.9 638.26 662.93 640.02 652.94 642.22 642.92 644.64 632.84 647.61 622.71 650.41 612.55 652.83 602.37 655.22 592.19 656.88 582.07 657.68 572.03 658.01 562.16 657.28 552.56 655.46 543.22 652.96 534.32 649.35 525.97 644.66 518.08 639.32 510.9 633.01 504.53 625.86 498.71 618.19 493.74 609.82 489.61 600.89 485.9 591.65 482.89 581.99 480.47 572.05 478.09 561.95 475.99 551.68 474.04 541.33 471.64 530.95 469.09 520.54 466.3 510.18 462.79 499.85 458.99 489.58 454.95 479.42 450.39 469.3 445.85 459.27 441.55 449.37 437.32 439.51 433.75 429.75 431.1 420.12 429.09 410.5 428.28 401 428.73 391.62 429.95 382.25 432.26 373.22 435.43 364.53 438.84 355.83 442.66 347.47 446.65 339.46 450.21 331.42 453.61 323.73 456.74 316.38 459.13 309 461.25 301.95 463.17 295.23 464.56 288.45 466.03 281.98 467.75 275.8 469.45 269.52 471.73 263.48 474.73 257.68 478.16 251.71 482.5 245.91 487.74 240.25 493.6 234.35 500.34 228.53 507.86 222.76 515.87 216.7 524.49 210.64 533.56 204.58 542.87 198.2 552.44 191.8 562.17 185.41 571.87 178.74 581.6 172.12 591.3 165.61 600.84 158.95 610.31 152.5 619.72 146.36 628.94 140.26 638.13 134.62 647.32 129.54 656.35 124.74 665.46 120.64 674.67 117.36 683.79 114.55 693.08 112.66 702.57 111.73 712.03 111.35 721.74 111.95 731.7 113.53" stroke-dasharray="9 6" transform="rotate(4.04, 711, 400)" opacity="0.62"></path><path d="M733.49 124.21C743.09 126.2 752.59 128.97 761.93 132.4 771.25 136.01 780.38 140.11 789.23 144.59 797.98 148.98 806.35 153.6 814.25 158.34 821.92 162.8 828.98 167.3 835.32 171.78 843.89 177.9 856.12 189.39 859.79 194.85 862.5 199.89 866.39 210.33 869.09 215.97 872.18 219.71 876.27 223.79 881.63 228.22 888.67 232.63 897.22 237.45 907.27 242.65 918.72 247.9 931.17 253.56 944.14 259.61 957.15 265.73 969.48 272.24 980.37 279.09 989.4 286.01 995.79 293.26 999.03 300.8 999.37 308.39 996.42 316.25 990.43 324.33 982.59 332.44 973.11 340.75 962.96 349.23 953.78 357.72 945.98 366.36 940.46 375.13 938.32 383.9 939.3 392.6 943.13 401.21 949.78 409.83 957.96 418.37 966.71 426.85 975.65 435.36 983.27 443.84 988.79 452.29 992.18 460.83 992.52 469.4 989.76 478 984.39 486.75 976.33 495.59 966.13 504.53 954.48 513.65 941.81 522.92 928.77 532.33 915.91 541.93 903.64 551.66 892.3 561.49 882.19 571.45 873.33 581.45 865.72 591.39 859.49 601.31 854.28 611.04 849.85 620.45 846.37 629.6 843.24 638.22 840.2 646.15 837.54 653.53 834.6 660.01 831.21 665.43 825.8 671.76 811.34 676.77 802.22 675.36 795.74 673.28 788.62 670.1 780.93 665.97 773.14 661.57 764.84 656.59 756.11 651.24 747.35 646.26 738.19 641.36 728.7 636.76 719.2 633.13 709.6 630.19 699.93 628.01 690.27 627.01 680.53 626.74 670.74 627.14 660.95 628.53 651.09 630.33 641.19 632.37 631.29 634.97 621.36 637.46 611.44 639.66 601.57 641.92 591.78 643.57 582.13 644.49 572.65 645.07 563.43 644.72 554.58 643.39 546.06 641.51 538.04 638.6 530.64 634.71 523.71 630.23 517.5 624.82 512.07 618.59 507.14 611.86 502.97 604.43 499.54 596.41 496.41 588.05 493.84 579.23 491.72 570.07 489.51 560.72 487.46 551.14 485.45 541.4 482.91 531.6 480.17 521.72 477.15 511.83 473.43 501.93 469.44 492.06 465.23 482.26 460.57 472.48 455.98 462.78 451.67 453.18 447.47 443.62 443.97 434.15 441.38 424.81 439.45 415.48 438.69 406.27 439.17 397.19 440.42 388.12 442.74 379.38 445.91 370.99 449.34 362.59 453.21 354.51 457.27 346.78 460.95 339.01 464.49 331.57 467.77 324.45 470.35 317.3 472.63 310.44 474.66 303.88 476.12 297.25 477.57 290.89 479.15 284.78 480.6 278.56 482.5 272.54 484.99 266.71 487.8 260.71 491.41 254.84 495.85 249.09 500.85 243.09 506.71 237.16 513.36 231.27 520.54 225.1 528.39 218.93 536.78 212.77 545.5 206.32 554.6 199.87 563.95 193.46 573.41 186.82 583 180.26 592.63 173.83 602.21 167.31 611.77 161.03 621.3 155.07 630.71 149.2 640.08 143.8 649.42 138.95 658.65 134.4 667.9 130.54 677.17 127.47 686.38 124.85 695.67 123.11 705.04 122.3 714.4 122.01 723.89 122.64 733.49 124.21" stroke-dasharray="3 8" transform="rotate(8.08, 711, 400)" opacity="0.65"></path><path d="M732.08 134.89C741.25 136.84 750.19 139.54 758.85 142.87 767.48 146.38 775.79 150.37 783.71 154.74 791.53 159.05 798.88 163.59 805.67 168.29 812.28 172.73 818.24 177.24 823.49 181.75 830.62 187.98 840.87 199.77 844.26 205.39 847.34 210.57 853.84 221.11 858.62 226.67 863.21 230.32 868.84 234.26 875.7 238.49 884.01 242.67 893.59 247.2 904.31 252.09 916.01 256.98 928.28 262.25 940.63 267.87 952.65 273.54 963.67 279.57 973.05 285.94 980.53 292.35 985.42 299.09 987.38 306.13 986.74 313.2 983.19 320.55 977.02 328.15 969.35 335.77 960.34 343.61 950.86 351.67 942.37 359.72 935.16 367.97 930.02 376.39 927.93 384.82 928.64 393.22 931.93 401.59 937.83 409.97 945.21 418.33 953.26 426.67 961.7 435.06 969.15 443.45 974.91 451.86 978.96 460.35 980.37 468.89 979 477.5 975.26 486.22 968.93 495.05 960.41 503.97 950.32 513.04 938.92 522.23 926.8 531.52 914.46 540.95 902.27 550.45 890.61 559.99 879.78 569.58 869.92 579.14 861.09 588.56 853.44 597.9 846.77 606.97 840.94 615.65 836.08 624.03 831.75 631.83 827.72 638.93 822.48 648.3 811.5 661.05 805.06 663.99 800.56 664.78 795.47 664.38 789.77 662.82 783.97 660.66 777.58 657.53 770.61 653.55 763.56 649.37 755.98 644.69 747.92 639.67 739.81 635.01 731.26 630.42 722.29 626.08 713.32 622.62 704.18 619.76 694.89 617.57 685.63 616.45 676.24 615.98 666.76 616.1 657.31 617.14 647.78 618.57 638.22 620.24 628.72 622.46 619.22 624.63 609.78 626.59 600.47 628.67 591.29 630.26 582.34 631.23 573.63 631.97 565.25 631.9 557.3 630.98 549.72 629.61 542.69 627.31 536.29 624.12 530.34 620.42 525.07 615.84 520.54 610.47 516.41 604.65 512.93 598.12 510.09 590.99 507.4 583.53 505.14 575.57 503.2 567.22 501.04 558.67 498.94 549.82 496.78 540.78 494.05 531.63 491.07 522.35 487.81 513 483.88 503.63 479.69 494.23 475.35 484.87 470.61 475.5 466 466.19 461.7 456.96 457.57 447.74 454.15 438.61 451.64 429.59 449.8 420.58 449.1 411.68 449.62 402.91 450.88 394.14 453.19 385.69 456.35 377.58 459.79 369.45 463.68 361.63 467.79 354.13 471.57 346.61 475.24 339.38 478.69 332.45 481.45 325.46 483.92 318.75 486.11 312.31 487.7 305.78 489.2 299.48 490.73 293.4 492.02 287.2 493.65 281.17 495.73 275.29 498 269.24 500.96 263.29 504.66 257.44 508.83 251.35 513.8 245.32 519.55 239.31 525.81 233.06 532.78 226.81 540.34 220.58 548.3 214.1 556.72 207.65 565.48 201.25 574.46 194.68 583.65 188.21 592.97 181.91 602.35 175.56 611.77 169.47 621.19 163.73 630.59 158.11 639.96 152.96 649.28 148.36 658.55 144.07 667.8 140.45 677.02 137.59 686.2 135.17 695.38 133.58 704.56 132.88 713.73 132.67 722.91 133.33 732.08 134.89" stroke-dasharray="6 10" transform="rotate(12.12, 711, 400)" opacity="0.76"></path><path d="M727.67 145.57C736.36 147.48 744.71 150.09 752.7 153.32 760.65 156.72 768.19 160.6 775.28 164.85 782.27 169.06 788.75 173.52 794.66 178.14 800.43 182.56 805.59 187.05 810.11 191.58 816.37 197.89 825.96 209.95 829.73 215.72 833.76 221.05 843.54 231.77 850.44 237.32 856.42 240.93 863.4 244.77 871.46 248.86 880.69 252.88 890.9 257.2 901.9 261.83 913.48 266.44 925.23 271.38 936.7 276.66 947.54 281.94 957.15 287.57 965.01 293.52 970.99 299.49 974.5 305.78 975.31 312.37 973.85 318.98 969.83 325.87 963.58 333.03 956.15 340.2 947.64 347.62 938.82 355.27 930.99 362.92 924.36 370.8 919.57 378.89 917.54 386.98 918.01 395.09 920.8 403.22 925.99 411.36 932.6 419.52 939.93 427.71 947.81 435.93 955 444.2 960.85 452.51 965.38 460.89 967.66 469.35 967.49 477.88 965.23 486.5 960.54 495.22 953.7 504.03 945.24 512.94 935.3 521.94 924.35 530.99 912.87 540.13 901.17 549.29 889.63 558.42 878.54 567.55 868.09 576.58 858.42 585.4 849.67 594.08 841.78 602.43 834.7 610.35 828.5 617.93 822.92 624.92 817.79 631.19 811.09 639.36 798.43 650.02 791.76 652.19 784.83 652.26 768.61 646.5 759.19 641.16 752.7 637.21 745.7 632.82 738.2 628.12 730.69 623.78 722.7 619.49 714.29 615.4 705.87 612.11 697.23 609.34 688.44 607.15 679.67 605.92 670.76 605.27 661.77 605.14 652.82 605.86 643.82 606.93 634.81 608.24 625.9 610.11 617.03 611.95 608.3 613.64 599.73 615.51 591.36 616.98 583.28 617.95 575.47 618.76 568.05 618.9 561.11 618.29 554.52 617.33 548.49 615.56 543.08 612.97 538.06 609.94 533.67 606.12 529.93 601.54 526.47 596.56 523.56 590.89 521.15 584.62 518.77 578.03 516.68 570.93 514.79 563.4 512.58 555.67 510.33 547.6 507.95 539.28 504.99 530.83 501.75 522.21 498.23 513.48 494.1 504.69 489.75 495.84 485.28 486.97 480.51 478.09 475.9 469.22 471.66 460.4 467.62 451.58 464.31 442.83 461.9 434.16 460.15 425.51 459.52 416.93 460.06 408.47 461.34 400.01 463.63 391.86 466.76 384 470.18 376.14 474.06 368.56 478.2 361.27 482.06 353.95 485.86 346.9 489.45 340.11 492.42 333.28 495.09 326.68 497.48 320.31 499.24 313.85 500.85 307.59 502.41 301.51 503.66 295.31 505.11 289.25 506.89 283.31 508.74 277.2 511.15 271.18 514.19 265.23 517.59 259.08 521.72 252.96 526.58 246.87 531.9 240.56 537.93 234.27 544.57 228.01 551.63 221.54 559.21 215.13 567.21 208.79 575.49 202.33 584.06 196 592.85 189.86 601.77 183.72 610.81 177.85 619.9 172.36 629.04 167 638.19 162.11 647.3 157.78 656.41 153.75 665.49 150.37 674.49 147.73 683.5 145.5 692.45 144.07 701.32 143.48 710.19 143.33 718.99 144.03 727.67 145.57" stroke-dasharray="2 11" transform="rotate(16.16, 711, 400)" opacity="0.11"></path><path d="M720.9 156.24C729.06 158.11 736.83 160.64 744.19 163.75 751.51 167.05 758.39 170.79 764.79 174.91 771.13 179.02 776.95 183.38 782.24 187.91 787.45 192.28 792.13 196.74 796.28 201.26 802.23 207.62 812.33 219.9 817 225.81 820.5 229.46 824.17 233.15 828.18 236.91 832.96 240.42 838.36 244.06 844.51 247.83 851.66 251.44 859.7 255.24 868.61 259.25 878.39 263.16 888.85 267.33 899.74 271.77 910.86 276.16 921.81 280.86 932.18 285.85 941.71 290.82 949.87 296.11 956.23 301.71 960.79 307.3 963.05 313.21 962.86 319.4 960.71 325.6 956.36 332.09 950.12 338.85 942.99 345.61 935.01 352.64 926.85 359.92 919.66 367.2 913.56 374.72 909.13 382.48 907.16 390.25 907.41 398.08 909.73 405.95 914.26 413.83 920.12 421.78 926.73 429.77 934.02 437.8 940.85 445.89 946.66 454.05 951.49 462.27 954.44 470.56 955.29 478.93 954.34 487.36 951.16 495.88 945.93 504.46 939.11 513.11 930.72 521.81 921.14 530.53 910.81 539.28 899.95 548 888.92 556.63 878 565.21 867.39 573.62 857.3 581.77 847.84 589.75 839.06 597.35 830.98 604.48 823.65 611.27 816.92 617.45 810.71 622.92 805.1 627.88 799.8 632.02 794.68 635.25 787.52 638.7 772.96 639.83 765.1 637.59 759.79 635.38 754.07 632.42 747.94 628.79 741.8 625.08 735.21 620.98 728.19 616.6 721.15 612.57 713.68 608.56 705.81 604.72 697.94 601.6 689.86 598.93 681.64 596.75 673.44 595.43 665.13 594.61 656.76 594.26 648.44 594.68 640.11 595.42 631.83 596.39 623.66 597.9 615.59 599.41 607.71 600.83 600.01 602.46 592.57 603.77 585.47 604.67 575.42 605.63 558.14 604.06 551.11 601.3 545.09 597.28 536 585.17 532.61 577.28 530.38 571.52 528.33 565.25 526.37 558.54 524.01 551.62 521.55 544.33 518.9 536.76 515.67 529.05 512.17 521.13 508.4 513.04 504.08 504.89 499.59 496.62 495.04 488.3 490.27 479.96 485.7 471.58 481.54 463.22 477.63 454.85 474.44 446.51 472.14 438.23 470.5 429.95 469.94 421.73 470.5 413.6 471.78 405.46 474.04 397.59 477.12 389.99 480.51 382.38 484.37 375.03 488.51 367.93 492.43 360.81 496.32 353.92 500.06 347.26 503.22 340.54 506.11 334.03 508.7 327.71 510.68 321.31 512.47 315.08 514.14 308.99 515.42 302.78 516.81 296.69 518.41 290.69 519.96 284.55 521.94 278.46 524.44 272.44 527.17 266.24 530.55 260.07 534.57 253.93 538.99 247.61 544.07 241.32 549.77 235.07 555.86 228.67 562.5 222.33 569.61 216.11 577.02 209.79 584.8 203.64 592.85 197.71 601.1 191.79 609.54 186.18 618.08 180.95 626.73 175.87 635.44 171.27 644.13 167.21 652.88 163.44 661.59 160.31 670.23 157.89 678.89 155.85 687.47 154.57 695.93 154.08 704.4 154.01 712.73 154.73 720.9 156.24" stroke-dasharray="6 11" transform="rotate(20.200000000000003, 711, 400)" opacity="0.44"></path><path d="M712.71 166.92C720.34 168.73 727.56 171.18 734.37 174.18 741.16 177.35 747.5 180.96 753.4 184.94 759.26 188.92 764.66 193.16 769.61 197.6 774.54 201.89 779.05 206.3 783.17 210.78 789.3 217.16 800.77 229.6 806.67 235.64 811.1 239.39 815.84 243.17 821.02 247.01 826.92 250.61 833.44 254.31 840.65 258.12 848.68 261.76 857.41 265.55 866.79 269.52 876.74 273.38 887.05 277.45 897.5 281.76 907.86 286 917.79 290.5 926.91 295.27 935.06 300 941.77 305.02 946.7 310.32 949.95 315.61 951.1 321.18 950.07 327.04 947.38 332.89 942.82 339.03 936.68 345.43 929.89 351.83 922.45 358.5 914.93 365.43 908.36 372.36 902.79 379.55 898.69 387 896.79 394.44 896.84 401.98 898.73 409.58 902.63 417.19 907.78 424.89 913.69 432.65 920.34 440.44 926.74 448.31 932.4 456.25 937.37 464.23 940.81 472.29 942.47 480.4 942.62 488.57 940.79 496.8 937.06 505.06 931.84 513.35 925.03 521.66 916.93 529.93 907.94 538.2 898.19 546.39 888 554.44 877.64 562.4 867.31 570.15 857.21 577.59 847.47 584.83 838.2 591.67 829.45 598.01 821.28 604.01 813.66 609.41 806.52 614.11 799.93 618.35 793.7 621.81 787.75 624.43 779.45 627.11 763.4 627.3 755.21 624.92 749.78 622.74 744.08 619.89 738.08 616.46 732.1 612.99 725.78 609.17 719.12 605.11 712.45 601.37 705.43 597.64 698.07 594.04 690.71 591.09 683.2 588.51 675.6 586.36 668.02 584.97 660.37 584.02 652.71 583.46 645.11 583.61 637.56 584.05 630.1 584.7 622.76 585.86 615.57 587.05 608.63 588.17 601.86 589.55 595.38 590.67 589.28 591.46 580.68 592.41 566.16 591.41 560.33 589.22 555.29 585.97 547.44 575.8 544.29 569 542.08 564.02 539.95 558.54 537.8 552.61 535.23 546.47 532.49 539.96 529.55 533.14 526.04 526.17 522.27 518.96 518.28 511.54 513.8 504.05 509.22 496.41 504.63 488.67 499.89 480.89 495.41 473.05 491.35 465.18 487.59 457.29 484.55 449.4 482.38 441.52 480.85 433.65 480.36 425.8 480.95 418.01 482.22 410.21 484.44 402.63 487.45 395.29 490.78 387.94 494.6 380.81 498.71 373.9 502.67 366.96 506.63 360.22 510.49 353.67 513.83 347.07 516.93 340.64 519.75 334.37 521.97 328.03 523.97 321.81 525.81 315.72 527.22 309.51 528.64 303.4 530.17 297.37 531.55 291.21 533.24 285.09 535.32 279.03 537.53 272.82 540.27 266.64 543.56 260.5 547.15 254.21 551.35 247.97 556.13 241.79 561.25 235.5 566.92 229.29 573.07 223.22 579.53 217.1 586.39 211.16 593.58 205.46 600.99 199.81 608.64 194.48 616.47 189.53 624.43 184.75 632.5 180.43 640.6 176.66 648.79 173.16 656.97 170.28 665.09 168.07 673.26 166.22 681.34 165.08 689.29 164.7 697.26 164.69 705.08 165.44 712.71 166.92" stroke-dasharray="7 8" transform="rotate(24.24, 711, 400)" opacity="0.24"></path><path d="M704.28 177.6C711.38 179.36 718.11 181.71 724.47 184.59 730.82 187.63 736.78 191.1 742.36 194.93 747.93 198.77 753.13 202.88 757.98 207.2 762.87 211.4 767.47 215.74 771.82 220.16 776.3 224.38 780.65 228.66 784.94 232.96 789.52 237.01 794.2 241.09 799.08 245.17 804.45 249.02 810.19 252.89 816.38 256.8 823.2 260.5 830.57 264.26 838.52 268.12 847.07 271.81 856.13 275.62 865.58 279.59 875.33 283.42 885.17 287.45 894.87 291.67 904.25 295.8 912.99 300.17 920.78 304.77 930.17 311.72 938.59 326.87 936.97 335.09 933.88 340.65 929.21 346.47 923.26 352.56 916.85 358.64 909.97 364.98 903.08 371.59 897.1 378.19 892.02 385.06 888.24 392.19 886.42 399.32 886.29 406.55 887.8 413.86 891.12 421.18 895.58 428.6 900.79 436.08 906.8 443.59 912.71 451.18 918.11 458.83 923.08 466.51 926.82 474.25 929.1 482.04 930.16 489.86 929.48 497.71 927.1 505.56 923.38 513.41 918.11 521.24 911.53 529 903.99 536.71 895.54 544.31 886.45 551.72 876.98 559.02 867.29 566.05 857.58 572.77 847.98 579.25 838.62 585.32 829.6 590.9 820.97 596.14 812.75 600.79 804.96 604.78 797.59 608.35 790.6 611.19 783.92 613.25 777.6 614.86 771.47 615.67 765.47 615.67 759.7 615.26 753.94 614.1 748.14 612.23 742.45 610.1 736.63 607.38 730.64 604.16 724.68 600.94 718.51 597.39 712.11 593.64 705.71 590.19 699.06 586.73 692.17 583.37 685.28 580.58 678.32 578.1 671.34 575.98 664.38 574.55 657.41 573.47 650.51 572.74 643.66 572.64 636.9 572.8 630.31 573.15 623.81 573.98 617.53 574.85 611.52 575.69 602.88 577.25 587.67 579.2 581.24 579.2 570.89 576.35 559.15 565.65 556.01 559.84 553.7 555.57 551.37 550.81 548.97 545.6 546.12 540.22 543.08 534.45 539.83 528.35 536.05 522.12 532.05 515.6 527.86 508.86 523.28 502.04 518.63 495.04 514.05 487.89 509.38 480.71 505.02 473.42 501.11 466.06 497.52 458.69 494.64 451.26 492.61 443.82 491.2 436.38 490.78 428.92 491.39 421.47 492.65 414.03 494.82 406.76 497.75 399.69 501 392.61 504.75 385.7 508.81 378.97 512.77 372.22 516.79 365.64 520.73 359.2 524.23 352.73 527.52 346.39 530.57 340.17 533.05 333.89 535.3 327.71 537.36 321.63 538.96 315.46 540.5 309.36 542.07 303.32 543.41 297.17 544.94 291.06 546.76 285.01 548.58 278.83 550.83 272.69 553.53 266.6 556.42 260.4 559.84 254.26 563.78 248.19 568 242.05 572.73 236.03 577.93 230.15 583.41 224.26 589.31 218.58 595.57 213.14 602.04 207.79 608.81 202.76 615.79 198.11 622.93 193.64 630.22 189.63 637.6 186.13 645.08 182.91 652.59 180.28 660.08 178.27 667.63 176.61 675.12 175.62 682.5 175.32 689.91 175.39 697.18 176.14 704.28 177.6" stroke-dasharray="7 2" transform="rotate(28.28, 711, 400)" opacity="0.77"></path><path d="M696.81 188.28C703.41 189.98 709.72 192.23 715.73 194.98 721.73 197.89 727.44 201.21 732.86 204.88 738.3 208.58 743.48 212.54 748.43 216.72 753.45 220.81 758.31 225.05 763.06 229.39 767.97 233.57 772.88 237.81 777.86 242.1 783.13 246.17 788.6 250.28 794.33 254.41 800.5 258.31 807.04 262.26 814 266.23 821.46 270.01 829.36 273.85 837.68 277.76 846.38 281.5 855.38 285.35 864.55 289.33 873.77 293.17 882.85 297.17 891.57 301.34 899.81 305.41 907.27 309.69 913.68 314.16 921.05 320.9 926.18 335.46 923.61 343.33 920.26 348.63 915.59 354.18 909.88 359.98 903.9 365.78 897.57 371.82 891.29 378.13 885.88 384.42 881.27 390.98 877.8 397.79 876.05 404.6 875.78 411.52 876.93 418.52 879.71 425.52 883.53 432.62 888.07 439.78 893.42 446.96 898.8 454.21 903.85 461.52 908.69 468.83 912.57 476.2 915.28 483.59 917.04 490.98 917.32 498.38 916.11 505.74 913.72 513.09 909.9 520.37 904.8 527.55 898.74 534.66 891.7 541.61 883.88 548.35 875.55 554.95 866.79 561.26 857.81 567.23 848.73 572.98 839.68 578.3 830.78 583.13 822.07 587.65 813.64 591.6 805.52 594.94 797.69 597.9 790.19 600.18 782.99 601.76 776.08 602.95 769.4 603.43 762.91 603.19 756.64 602.62 750.46 601.39 744.35 599.53 738.36 597.47 732.35 594.91 726.3 591.9 720.29 588.92 714.19 585.66 707.97 582.2 701.76 579.02 695.42 575.82 688.95 572.69 682.47 570.07 676.02 567.7 669.63 565.62 663.25 564.15 656.95 562.98 650.77 562.09 641.65 561.73 624.47 562.56 616.59 563.41 602.74 565.32 585.95 565.55 581.74 564.12 574.35 558.41 563.74 544.18 559.74 537.59 556.58 532.89 553.24 527.82 549.68 522.4 545.67 516.86 541.47 511.03 537.14 504.95 532.49 498.79 527.85 492.42 523.32 485.88 518.77 479.29 514.55 472.56 510.82 465.73 507.42 458.88 504.72 451.94 502.84 444.95 501.56 437.95 501.21 430.9 501.83 423.82 503.08 416.74 505.18 409.8 508.01 403 511.17 396.2 514.82 389.53 518.81 383 522.75 376.46 526.77 370.03 530.78 363.73 534.41 357.4 537.87 351.16 541.12 345.03 543.86 338.84 546.37 332.72 548.68 326.69 550.53 320.57 552.27 314.52 553.97 308.52 555.37 302.43 556.88 296.38 558.57 290.38 560.17 284.29 562.08 278.24 564.34 272.26 566.7 266.2 569.49 260.2 572.72 254.31 576.15 248.38 580.04 242.58 584.37 236.94 588.92 231.33 593.89 225.92 599.22 220.79 604.75 215.75 610.59 211.04 616.69 206.7 622.93 202.55 629.38 198.85 635.96 195.64 642.63 192.7 649.4 190.3 656.19 188.51 663.04 187.03 669.88 186.17 676.67 185.97 683.48 186.09 690.2 186.86 696.81 188.28" stroke-dasharray="1 4" transform="rotate(32.32, 711, 400)" opacity="0.80"></path><path d="M691.35 198.96C697.5 200.59 703.45 202.74 709.2 205.36 714.95 208.13 720.51 211.3 725.89 214.79 731.3 218.34 736.57 222.14 741.72 226.16 746.97 230.12 752.17 234.24 757.37 238.47 762.74 242.58 768.21 246.76 773.82 251 779.7 255.07 785.82 259.18 792.21 263.32 798.95 267.27 806.03 271.26 813.44 275.28 821.2 279.12 829.27 283.01 837.59 286.97 846.09 290.77 854.69 294.67 863.26 298.66 871.68 302.52 879.78 306.52 887.36 310.65 894.36 314.69 900.5 318.9 905.57 323.29 911.04 329.86 913.32 343.95 910.05 351.51 906.54 356.59 901.96 361.91 896.56 367.46 891.02 372.99 885.25 378.76 879.57 384.77 874.7 390.77 870.54 397.02 867.36 403.5 865.68 409.99 865.29 416.58 866.13 423.24 868.41 429.9 871.62 436.65 875.52 443.45 880.21 450.26 885.03 457.12 889.66 464.02 894.26 470.92 898.14 477.85 901.1 484.77 903.35 491.68 904.38 498.57 904.14 505.39 902.91 512.18 900.39 518.87 896.67 525.42 892.06 531.89 886.44 538.17 879.99 544.21 872.95 550.1 865.34 555.7 857.34 560.94 849.1 565.97 840.7 570.57 832.27 574.7 823.87 578.55 815.59 581.86 807.49 584.6 799.56 587.01 791.86 588.82 784.42 589.98 777.17 590.82 770.15 591.03 763.34 590.6 756.7 589.91 750.21 588.64 743.86 586.83 737.62 584.87 731.45 582.47 725.32 579.69 719.25 576.94 713.19 573.95 707.11 570.78 701.06 567.86 694.97 564.92 688.85 562.01 682.74 559.55 676.74 557.29 670.88 555.27 662.18 553.15 645.67 550.85 637.98 550.52 630.62 550.9 617.42 552.1 611.66 552.6 601.76 552.79 589.57 549.49 586.1 546.81 582.41 543.47 574.48 534.35 570 528.63 566.54 524.56 562.9 520.11 559.08 515.33 554.87 510.44 550.53 505.25 546.11 499.8 541.46 494.27 536.86 488.52 532.44 482.56 528.05 476.57 524.02 470.4 520.49 464.09 517.3 457.77 514.8 451.33 513.08 444.79 511.92 438.24 511.64 431.61 512.28 424.92 513.49 418.22 515.52 411.62 518.24 405.12 521.29 398.61 524.83 392.2 528.71 385.89 532.59 379.57 536.59 373.34 540.62 367.19 544.35 361.02 547.95 354.92 551.39 348.9 554.36 342.83 557.13 336.83 559.71 330.88 561.83 324.87 563.82 318.91 565.72 313 567.29 307.02 568.89 301.08 570.58 295.2 572.11 289.24 573.85 283.35 575.84 277.53 577.83 271.65 580.16 265.87 582.85 260.2 585.65 254.52 588.85 248.98 592.43 243.63 596.17 238.32 600.3 233.23 604.79 228.42 609.42 223.72 614.38 219.34 619.62 215.33 624.98 211.51 630.57 208.11 636.34 205.19 642.2 202.52 648.19 200.37 654.28 198.77 660.41 197.47 666.59 196.74 672.79 196.62 679 196.8 685.2 197.57 691.35 198.96" stroke-dasharray="4 1" transform="rotate(36.36, 711, 400)" opacity="0.08"></path><path d="M688.68 209.63C694.44 211.2 700.09 213.25 705.64 215.73 711.19 218.36 716.66 221.36 722.06 224.68 732.97 231.44 743.83 239.13 754.88 247.41 766.56 255.3 778.96 263.52 792.26 271.91 806.55 279.65 821.83 287.59 837.68 295.71 853.6 303.25 868.82 311.16 882.05 319.48 892.81 327.43 899.61 335.99 901.47 345.21 899.58 354.24 893.16 364.07 883.31 374.7 878.24 379.99 873.02 385.5 867.91 391.22 863.55 396.94 859.81 402.88 856.91 409.03 855.33 415.19 854.83 421.43 855.38 427.73 857.21 434.03 859.87 440.39 863.15 446.79 871.82 459.6 880.26 472.54 886.67 485.37 891.15 498.11 891.34 510.6 887.15 522.48 879.82 534 868.94 544.6 855.66 553.87 841.03 562.35 825.54 569.11 810.06 573.81 794.77 577.41 780.06 578.81 766.14 577.92 752.68 576.22 739.83 572.65 727.51 567.51 721.42 565.01 715.42 562.28 709.48 559.39 703.57 556.73 697.71 554.02 691.91 551.33 683.31 547.96 667.1 542.78 659.53 541.02 649.62 540.12 640.69 539.7 632.88 539.46 625.15 540.27 618.53 540.56 613 540 607.23 539.58 602.15 537.8 597.49 534.52 591.84 530.88 585.98 525.63 579.64 518.87 571.82 511.69 563.44 503.14 554.79 493.46 545.51 483.54 537.01 472.69 530.13 461.13 527.17 455.33 524.87 449.38 523.31 443.3 522.28 437.21 522.07 431.01 522.72 424.71 523.9 418.41 525.84 412.16 528.45 405.98 531.37 399.79 534.77 393.66 538.52 387.6 546.01 375.44 553.83 363.49 561.32 351.79 567.26 339.96 572.51 328.27 577.18 316.79 580.48 305.12 583.87 293.62 587.75 282.45 591.31 271.18 596.02 260.36 601.98 250.25 608.27 240.37 615.94 231.51 624.79 224.01 633.99 217.22 644.14 212.14 654.93 209.07 663.15 207.64 680.08 207.91 688.68 209.63" stroke-dasharray="7 4" transform="rotate(40.400000000000006, 711, 400)" opacity="0.58"></path><path d="M689.19 220.31C699.99 223.49 710.78 228.35 721.56 234.53 732.5 240.94 743.71 248.27 755.31 256.22 767.42 263.88 780.26 271.91 793.83 280.17 807.98 287.89 822.68 295.83 837.39 303.93 851.66 311.54 864.73 319.45 875.5 327.71 883.82 335.62 888.41 344.05 888.64 353.03 885.85 361.83 879.35 371.31 870.16 381.47 861.22 391.58 852.77 402.46 846.47 414.09 844.66 425.72 846.41 437.59 850.96 449.53 858.4 461.46 865.94 473.41 872.08 485.16 877.03 496.79 878.52 508.05 876.29 518.63 871.42 528.84 863.17 538.08 852.38 546.02 840.07 553.24 826.46 558.86 812.37 562.59 798.07 565.42 783.97 566.29 770.42 565.17 757.11 563.44 744.36 560.1 732.23 555.39 720.25 550.96 708.71 545.92 697.68 540.65 686.65 536.75 676.58 533.36 667.49 530.59 658.39 529.36 650.29 528.51 643.24 527.83 636.12 528.12 629.93 528.01 624.57 527.22 618.78 526.67 613.43 524.99 608.26 522.06 602.07 518.91 595.57 514.34 588.62 508.42 580.42 502.18 571.83 494.67 563.19 486.04 554.21 477.22 546.15 467.44 539.75 456.89 534.71 446.27 532.38 435 533.16 423.22 535.9 411.43 541.19 399.7 548.24 388.14 555.53 376.55 563.3 365.06 570.92 353.76 577.26 342.36 583.02 331.07 588.22 319.98 592.07 308.77 595.83 297.76 599.81 287.11 603.24 276.45 607.49 266.27 612.73 256.84 618.04 247.7 624.55 239.57 632.16 232.75 639.97 226.61 648.79 222.08 658.39 219.41 668.08 217.69 678.39 217.96 689.19 220.31" stroke-dasharray="7 7" transform="rotate(44.44, 711, 400)" opacity="0.18"></path><path d="M692.8 230.99C702.97 234 713.42 238.56 724.13 244.36 734.97 250.39 746.27 257.34 758.05 264.9 770.17 272.27 782.92 280.06 796.14 288.1 809.56 295.72 823.11 303.58 836.2 311.6 848.5 319.21 859.28 327.09 867.63 335.25 873.71 343.11 876.4 351.39 875.34 360.12 871.94 368.69 865.56 377.82 857.1 387.53 849.14 397.18 841.67 407.49 836.02 418.41 834.23 429.34 835.39 440.39 838.97 451.42 845.21 462.43 851.79 473.35 857.45 483.98 862.54 494.47 864.91 504.5 864.22 513.79 861.43 522.74 855.57 530.7 847.22 537.4 837.35 543.49 825.89 548.09 813.58 551 800.8 553.18 787.84 553.65 775.12 552.38 762.46 550.69 750.2 547.59 738.51 543.31 726.92 539.34 715.83 534.79 705.34 529.98 694.85 526.34 685.39 523.05 676.93 520.22 668.4 518.73 660.83 517.51 654.18 516.42 647.35 516.24 641.25 515.73 635.75 514.68 629.72 513.94 623.92 512.27 618.14 509.55 611.4 506.73 604.33 502.7 596.89 497.46 588.46 492.01 579.82 485.38 571.35 477.7 562.78 469.86 555.24 461.07 549.36 451.48 544.81 441.83 542.78 431.46 543.61 420.51 546.22 409.55 551.2 398.53 557.88 387.58 564.9 376.62 572.52 365.69 580.18 354.88 586.81 344.02 593 333.24 598.7 322.65 603.15 312.02 607.39 301.6 611.68 291.57 615.27 281.61 619.4 272.15 624.26 263.46 628.98 255.09 634.69 247.7 641.39 241.57 648.15 236.07 655.9 232.07 664.53 229.79 673.18 228.35 682.63 228.72 692.8 230.99" stroke-dasharray="0 9" transform="rotate(48.48, 711, 400)" opacity="0.28"></path><path d="M698.99 241.67C708.58 244.5 718.64 248.75 729.08 254.16 739.63 259.8 750.7 266.32 762.21 273.47 773.9 280.49 786.03 287.97 798.33 295.73 810.55 303.17 822.52 310.86 833.67 318.73 843.84 326.26 852.33 334.03 858.42 342.04 862.54 349.79 863.67 357.9 861.65 366.36 857.91 374.67 851.82 383.45 844.16 392.68 837.15 401.86 830.61 411.57 825.58 421.77 823.81 431.96 824.47 442.17 827.17 452.26 832.28 462.33 837.84 472.2 842.88 481.69 847.8 491.05 850.68 499.88 851.11 507.94 849.97 515.68 846.17 522.47 840.04 528.06 832.54 533.13 823.33 536.86 813.01 539.07 802.09 540.73 790.66 540.9 779.16 539.57 767.58 537.95 756.17 535.14 745.19 531.29 734.25 527.75 723.75 523.67 713.81 519.3 703.87 515.92 694.9 512.76 686.86 509.92 678.74 508.22 671.44 506.7 664.91 505.26 658.12 504.64 651.87 503.75 646.03 502.42 639.64 501.45 633.32 499.71 626.94 497.1 619.71 494.5 612.21 490.86 604.45 486.17 595.96 481.35 587.45 475.47 579.3 468.62 571.25 461.64 564.29 453.75 558.98 445.06 554.92 436.32 553.18 426.84 554.05 416.72 556.52 406.6 561.17 396.34 567.44 386.08 574.13 375.81 581.51 365.51 589.08 355.29 595.88 345.06 602.41 334.9 608.53 324.93 613.56 314.97 618.34 305.25 623.05 295.93 627 286.73 631.28 278.06 636.06 270.15 640.55 262.56 645.82 255.93 651.93 250.48 657.99 245.62 664.96 242.13 672.83 240.21 680.67 239.03 689.4 239.48 698.99 241.67" stroke-dasharray="6 8" transform="rotate(52.52, 711, 400)" opacity="0.18"></path><path d="M706.89 252.35C715.91 254.99 725.46 258.93 735.42 263.93 745.45 269.17 755.95 275.24 766.75 281.92 777.6 288.55 788.66 295.65 799.61 303.05 810.26 310.22 820.38 317.67 829.44 325.29 837.5 332.66 843.83 340.25 847.93 348.04 850.4 355.62 850.33 363.49 847.68 371.63 843.84 379.65 838.18 388.04 831.35 396.76 825.26 405.45 819.59 414.54 815.14 423.99 813.41 433.43 813.65 442.78 815.57 451.92 819.61 461.02 824.17 469.85 828.47 478.24 832.99 486.49 836.02 494.17 837.17 501.08 837.24 507.72 835.08 513.43 830.87 518.04 825.51 522.24 818.45 525.22 810.17 526.88 801.24 528.13 791.57 528.08 781.56 526.77 771.36 525.27 761.1 522.74 751.05 519.32 741 516.2 731.22 512.57 721.88 508.62 712.52 505.51 703.99 502.49 696.24 499.68 688.4 497.82 681.21 496.06 674.6 494.34 667.73 493.34 661.22 492.1 654.95 490.51 648.18 489.29 641.4 487.44 634.52 484.87 626.96 482.38 619.2 479.01 611.33 474.75 602.98 470.42 594.79 465.16 587.09 459.02 579.66 452.79 573.34 445.71 568.61 437.86 565.05 429.97 563.6 421.34 564.49 412.07 566.81 402.79 571.12 393.32 576.94 383.79 583.23 374.27 590.28 364.68 597.64 355.16 604.48 345.65 611.19 336.2 617.63 326.95 623.15 317.75 628.45 308.8 633.61 300.27 638.04 291.89 642.64 284.05 647.56 276.94 652.1 270.16 657.23 264.28 663.03 259.5 668.7 255.25 675.17 252.25 682.48 250.67 689.73 249.73 697.87 250.26 706.89 252.35" stroke-dasharray="8 9" transform="rotate(56.56, 711, 400)" opacity="0.93"></path><path d="M715.37 263.02C723.81 265.48 732.72 269.1 741.97 273.69 751.25 278.5 760.86 284.1 770.61 290.29 780.29 296.47 789.95 303.12 799.25 310.1 808.16 316.92 816.33 324.03 823.34 331.32 829.4 338.43 833.83 345.75 836.27 353.23 837.43 360.56 836.5 368.12 833.52 375.89 829.77 383.56 824.65 391.5 818.68 399.69 813.46 407.84 808.6 416.28 804.69 424.95 803.04 433.61 802.92 442.1 804.15 450.29 807.22 458.45 810.8 466.26 814.31 473.58 819.7 484.09 823.02 501.27 819.86 507.42 816.29 510.87 811.16 513.24 804.77 514.47 797.8 515.4 789.94 515.23 781.53 513.98 772.89 512.64 763.96 510.42 755 507.41 746.01 504.69 737.09 501.49 728.39 497.94 719.69 495.09 711.59 492.25 704.07 489.5 696.47 487.54 689.33 485.6 682.59 483.66 675.61 482.34 668.84 480.8 662.2 478.97 655.14 477.5 648.02 475.51 640.83 472.94 633.15 470.49 625.36 467.31 617.6 463.37 609.59 459.43 601.88 454.68 594.77 449.14 588.03 443.56 582.41 437.2 578.27 430.12 575.2 423.02 574.02 415.21 574.94 406.78 577.09 398.34 581.04 389.68 586.38 380.95 592.22 372.22 598.85 363.42 605.89 354.67 612.61 345.95 619.36 337.3 625.95 328.86 631.84 320.48 637.56 312.37 643.13 304.69 648.05 297.17 653.04 290.18 658.22 283.89 662.99 277.92 668.18 272.78 673.88 268.65 679.4 264.99 685.58 262.45 692.48 261.19 699.31 260.46 706.93 261.05 715.37 263.02" stroke-dasharray="2 10" transform="rotate(60.599999999999994, 711, 400)" opacity="0.38"></path><path d="M723.24 273.7C731.05 275.96 739.2 279.26 747.54 283.42 755.89 287.8 764.38 292.9 772.82 298.56 781.13 304.26 789.21 310.42 796.76 316.9 803.89 323.3 810.17 329.98 815.28 336.85 819.6 343.6 822.44 350.55 823.57 357.64 823.79 364.63 822.32 371.8 819.26 379.11 815.78 386.36 811.27 393.81 806.14 401.4 801.75 408.98 797.64 416.74 794.25 424.61 792.68 432.49 792.28 440.1 792.93 447.37 795.13 454.6 797.79 461.44 800.49 467.76 806.98 484.04 803.33 500.06 796.82 501.9 791.61 502.61 785.45 502.39 778.61 501.25 771.54 500.08 764.01 498.16 756.23 495.56 748.4 493.21 740.42 490.42 732.44 487.26 724.46 484.68 716.83 482.02 709.57 479.38 702.25 477.37 695.19 475.32 688.37 473.22 681.36 471.65 674.45 469.88 667.58 467.85 660.41 466.15 653.18 464.03 645.93 461.43 638.36 458.97 630.79 455.92 623.38 452.24 615.9 448.59 608.81 444.25 602.4 439.24 596.42 434.22 591.51 428.5 587.98 422.14 585.39 415.76 584.46 408.74 585.38 401.13 587.36 393.53 590.94 385.71 595.78 377.8 601.11 369.91 607.24 361.95 613.85 354.04 620.31 346.17 626.92 338.37 633.5 330.8 639.57 323.31 645.55 316.08 651.41 309.28 656.74 302.64 662.1 296.51 667.53 291.04 672.61 285.86 677.95 281.44 683.65 277.94 689.17 274.83 695.19 272.72 701.76 271.75 708.27 271.22 715.42 271.85 723.24 273.7" stroke-dasharray="6 3" transform="rotate(64.64, 711, 400)" opacity="0.31"></path><path d="M729.36 284.38C736.49 286.44 743.77 289.41 751.08 293.14 758.36 297.07 765.61 301.66 772.63 306.78 779.49 311.94 785.96 317.55 791.81 323.49 797.27 329.38 801.86 335.56 805.35 341.93 808.23 348.22 809.84 354.71 810.05 361.32 809.65 367.86 807.93 374.55 805.01 381.34 801.91 388.09 798.06 394.97 793.77 401.92 790.14 408.87 786.72 415.91 783.8 422.98 782.34 430.05 781.72 436.81 781.89 443.18 784.24 452.48 790.56 468.56 792.92 475.04 792.73 484.22 780.45 489.69 772.69 488.58 767.08 487.61 760.89 485.98 754.28 483.76 747.62 481.77 740.64 479.36 733.44 476.58 726.24 474.26 719.16 471.81 712.26 469.31 705.31 467.3 698.46 465.2 691.72 463.02 684.84 461.27 677.98 459.32 671.13 457.15 664.09 455.27 657.01 453.04 649.96 450.42 642.76 447.95 635.65 444.99 628.79 441.52 622 438.1 615.67 434.12 610.04 429.57 604.86 425.02 600.67 419.88 597.73 414.19 595.6 408.48 594.92 402.22 595.82 395.43 597.62 388.64 600.82 381.67 605.14 374.62 609.92 367.59 615.49 360.5 621.57 353.48 627.63 346.5 633.93 339.61 640.3 332.94 646.36 326.36 652.39 320.04 658.37 314.13 663.95 308.38 669.54 303.1 675.16 298.44 680.48 294.02 685.96 290.28 691.66 287.37 697.2 284.78 703.08 283.08 709.34 282.36 715.55 282.01 722.22 282.66 729.36 284.38" stroke-dasharray="5 9" transform="rotate(68.68, 711, 400)" opacity="0.59"></path><path d="M732.87 295.06C745.65 299 758.22 305.95 769.59 314.94 780.38 324.19 788.89 335.01 793.77 346.61 796.97 358.06 795.94 370.25 790.86 382.65 785.77 394.95 779.32 407.63 773.36 420.15 771.84 432.67 772.42 443.78 774.09 452.99 779.01 465.38 774.95 477.14 764.03 476.01 755.16 474.52 743.98 471.04 731.24 465.91 718.5 462.18 705.51 457.79 692.68 453.06 679.57 449.67 666.21 445.36 653.15 439.99 639.99 435.17 627.7 428.64 617.76 420.36 609.53 412.13 605.27 401.93 606.27 389.97 610.15 378 618.35 365.47 629.09 353.2 640.1 341.1 652.06 329.51 664 319.33 674.93 309.71 686.06 301.97 697.4 296.97 708.25 293.02 720.08 292.2 732.87 295.06" stroke-dasharray="5 0" transform="rotate(72.72, 711, 400)" opacity="0.85"></path><path d="M733.27 305.74C744.46 309.19 754.82 315.24 763.61 323.06 771.94 331.16 777.96 340.7 780.84 350.98 782.71 361.21 781.29 372.12 776.89 383.16 772.87 394.16 767.81 405.37 762.92 416.27 761.36 427.16 761.13 436.64 761.64 444.34 764.72 454.7 761.61 464.42 753.19 463.54 746.34 462.42 737.19 459.59 726.17 455.23 715.15 451.93 703.45 447.85 691.61 443.32 679.7 439.81 667.53 435.44 655.81 430.2 644.32 425.43 633.84 419.3 625.63 411.82 618.93 404.41 615.64 395.42 616.71 385.03 620.08 374.63 627.12 363.87 636.46 353.43 646.29 343.14 657.24 333.4 668.4 324.96 679.03 316.99 689.85 310.68 700.64 306.73 711.12 303.61 722.07 303.12 733.27 305.74" stroke-dasharray="7 0" transform="rotate(76.76, 711, 400)" opacity="0.27"></path><path d="M730.5 316.41C740.04 319.39 748.34 324.52 754.94 331.17 761.24 338.08 765.4 346.26 767 355.11 768.09 363.99 766.72 373.46 763.2 383.03 760.22 392.59 756.39 402.26 752.47 411.53 750.96 420.8 750.14 428.75 749.73 435.11 749.4 447.73 731.94 449.3 718.94 444.55 709.65 441.69 699.51 438 689.13 433.79 678.79 430.32 668.27 426.06 658.31 421.08 648.72 416.49 640.19 410.82 633.7 404.13 628.48 397.53 626.05 389.72 627.15 380.87 630 372.02 635.88 362.99 643.75 354.35 652.19 345.83 661.81 337.87 671.79 331.09 681.57 324.67 691.59 319.68 701.45 316.68 711.15 314.29 720.96 314.07 730.5 316.41" stroke-dasharray="10 5" transform="rotate(80.80000000000001, 711, 400)" opacity="0.66"></path><path d="M724.96 327.09C732.81 329.57 739.3 333.81 744.17 339.28 748.87 344.97 751.77 351.74 752.69 359.1 753.44 366.52 752.41 374.45 749.84 382.45 747.81 390.46 745.07 398.52 742.03 406.19 740.03 417.1 738.25 432.52 736.53 436.63 734.06 439.25 721.16 437.65 710.58 433.87 703 431.47 694.62 428.24 686.03 424.48 677.54 421.21 668.98 417.23 661.02 412.67 653.46 408.38 646.89 403.27 642.06 397.44 638.18 391.68 636.52 385.05 637.6 377.71 639.93 370.37 644.66 363.03 651.04 356.12 657.95 349.29 665.97 343.02 674.43 337.77 682.91 332.78 691.66 328.99 700.21 326.82 708.72 325.06 717.12 325.06 724.96 327.09" stroke-dasharray="7 2" transform="rotate(84.84, 711, 400)" opacity="0.85"></path><path d="M717.44 337.77C729.78 342.01 737.01 351.47 738.41 363.05 739.85 374.88 737.03 388.36 731.59 400.53 730.2 412.68 727.96 421.04 724.08 424.7 721.38 428.44 714.18 428.03 702.28 423.19 690.38 419.68 676.42 413.1 664.34 404.95 653.59 397.53 646.92 387.43 648.04 375.72 652.44 364.01 663.45 352.94 676.69 345.05 690.4 337.82 705.1 334.69 717.44 337.77" stroke-dasharray="10 9" transform="rotate(88.88, 711, 400)" opacity="0.68"></path><path d="M709 348.45C718.07 351.58 723.33 358.53 724.6 367.06 726.16 375.79 724.79 385.79 721.14 394.83 718.37 407.01 706.96 416 695.22 412.52 686.45 409.79 676.68 404.47 668.63 397.91 661.44 391.76 657.28 383.77 658.48 375 661.6 366.22 669.39 358.33 678.96 352.96 689.01 347.95 699.93 345.98 709 348.45" stroke-dasharray="5 11" transform="rotate(92.92, 711, 400)" opacity="0.19"></path><path d="M700.84 359.13C712.7 363.51 715.88 377.44 710.7 389.41 709.38 401.37 701.95 406.52 690.4 401.84 678.84 398.44 667.74 387.29 668.93 375.58 673.59 363.87 688.98 355.94 700.84 359.13" stroke-dasharray="2 8" transform="rotate(96.96, 711, 400)" opacity="0.47"></path></g></svg>